Coordinates
version=1
nRows=21
nColumns=34
inDegrees=no

Units are S.I. units (second, meters, Newtons, ...)
If the header above contains a line with 'inDegrees', this indicates whether rotational values are in degrees (yes) or radians (no).

endheader
time	pelvis_tilt	pelvis_list	pelvis_rotation	pelvis_tx	pelvis_ty	pelvis_tz	hip_flexion_r	hip_adduction_r	hip_rotation_r	knee_angle_r	ankle_angle_r	subtalar_angle_r	mtp_angle_r	hip_flexion_l	hip_adduction_l	hip_rotation_l	knee_angle_l	ankle_angle_l	subtalar_angle_l	mtp_angle_l	lumbar_extension	lumbar_bending	lumbar_rotation	arm_flex_r	arm_add_r	arm_rot_r	elbow_flex_r	pro_sup_r	arm_flex_l	arm_add_l	arm_rot_l	elbow_flex_l	pro_sup_l
0.47	0.214186	-0.0828987	0.0237899	0.41877	0.911702	-0.222684	-0.306905	0.0371637	-0.329518	0.326817	0.376697	0.401561	-0.0319799	0.346972	-0.163256	-0.219437	0.431393	0.130084	0.0216164	-0.0317976	-0.578033	-0.0219688	0.15552	0.373265	-0.315274	0.238215	0.494842	1.15488	0.245617	-0.171387	0.297432	0.445826	1.20636
0.48	0.211923	-0.0786511	0.0199034	0.430328	0.910038	-0.22299	-0.316197	0.0291109	-0.330993	0.332007	0.380606	0.407311	-0.0319788	0.336196	-0.153601	-0.215138	0.366836	0.141951	0.0391595	-0.0317971	-0.577679	-0.0358888	0.158354	0.376713	-0.313406	0.238123	0.495328	1.15515	0.248197	-0.172256	0.294101	0.44553	1.20209
0.49	0.210186	-0.0739958	0.015455	0.442138	0.908411	-0.223381	-0.326589	0.0203719	-0.331817	0.336482	0.38344	0.412798	-0.0319777	0.322951	-0.14374	-0.207405	0.302758	0.15394	0.0542198	-0.0317965	-0.577565	-0.0504085	0.160635	0.379543	-0.310972	0.238931	0.495811	1.15514	0.250151	-0.173386	0.289827	0.445504	1.19761
0.5	0.208911	-0.0689977	0.0104553	0.454227	0.906818	-0.22386	-0.337987	0.0110142	-0.331836	0.340272	0.385169	0.417837	-0.0319766	0.307673	-0.133959	-0.196119	0.240585	0.165623	0.0658144	-0.031796	-0.577507	-0.0654488	0.162276	0.38168	-0.307941	0.240769	0.496376	1.15492	0.251332	-0.174836	0.284562	0.445739	1.19289
0.51	0.208019	-0.0636953	0.00494667	0.466615	0.905253	-0.22443	-0.35024	0.00108208	-0.330902	0.343494	0.385778	0.422192	-0.0319755	0.29094	-0.124494	-0.181501	0.181957	0.176483	0.0732832	-0.0317954	-0.577317	-0.0809485	0.163173	0.383027	-0.304292	0.243676	0.497135	1.15459	0.25162	-0.176668	0.278324	0.446199	1.18789
0.52	0.207435	-0.0580934	-0.000987526	0.479317	0.903704	-0.225097	-0.363156	-0.00940977	-0.328915	0.346346	0.385243	0.425591	-0.0319744	0.273443	-0.115497	-0.164185	0.128638	0.18592	0.0763932	-0.0317949	-0.576841	-0.0968711	0.163201	0.383475	-0.300017	0.247597	0.498214	1.15429	0.250939	-0.178934	0.271197	0.446821	1.18257
0.53	0.207103	-0.0521576	-0.00721696	0.492335	0.902161	-0.225866	-0.376519	-0.020478	-0.325845	0.34911	0.383509	0.427746	-0.0319733	0.255944	-0.107011	-0.145228	0.0823704	0.193267	0.0753911	-0.0317944	-0.575983	-0.113208	0.162216	0.382913	-0.295124	0.252388	0.499745	1.15421	0.249266	-0.181684	0.263327	0.447514	1.17697
0.54	0.206999	-0.0458144	-0.0135645	0.50566	0.900612	-0.226743	-0.390102	-0.0321696	-0.321762	0.352152	0.380451	0.42836	-0.0319723	0.239202	-0.098952	-0.12601	0.0446902	0.197793	0.0709623	-0.0317938	-0.57474	-0.129975	0.160047	0.381248	-0.289643	0.257837	0.501861	1.15456	0.24665	-0.184952	0.254928	0.448172	1.17113
0.55	0.207145	-0.0389575	-0.0198163	0.519264	0.899086	-0.227733	-0.403664	-0.0445593	-0.316835	0.355929	0.375847	0.427125	-0.0319712	0.223886	-0.0911076	-0.108041	0.0167254	0.198724	0.06407	-0.0317933	-0.573217	-0.147212	0.156516	0.378418	-0.283625	0.26368	0.504681	1.15555	0.243216	-0.188762	0.24627	0.448675	1.16517
0.56	0.207609	-0.0314604	-0.0257413	0.533109	0.897607	-0.228842	-0.416946	-0.0577408	-0.311309	0.360995	0.369343	0.423703	-0.0319701	0.210489	-0.0831635	-0.0927108	-0.000968133	0.1953	0.0557217	-0.0317928	-0.571629	-0.164973	0.151447	0.374401	-0.277142	0.269646	0.508306	1.15736	0.239165	-0.193121	0.237665	0.448899	1.15925
0.57	0.208487	-0.0231952	-0.0311182	0.547145	0.896206	-0.230076	-0.429643	-0.0718143	-0.305459	0.368005	0.360434	0.417706	-0.0319691	0.199274	-0.0747541	-0.0810585	-0.00848867	0.186882	0.0467468	-0.0317923	-0.570283	-0.183313	0.144688	0.369227	-0.270285	0.275482	0.512802	1.16012	0.234773	-0.198022	0.229453	0.448723	1.1535
0.58	0.209878	-0.0140544	-0.0357625	0.561315	0.894921	-0.231441	-0.441374	-0.0868715	-0.299532	0.377717	0.348475	0.408667	-0.031968	0.190272	-0.0655307	-0.0736409	-0.00655477	0.173129	0.0376766	-0.0317918	-0.569545	-0.202274	0.136136	0.36298	-0.263152	0.280992	0.518193	1.16388	0.230374	-0.203444	0.221967	0.448026	1.14804
0.59	0.211852	-0.0039662	-0.0395494	0.575552	0.893789	-0.232944	-0.451644	-0.102981	-0.29369	0.39097	0.332712	0.396038	-0.031967	0.183329	-0.0552278	-0.0705245	0.00363653	0.154189	0.0287605	-0.0317913	-0.569777	-0.221873	0.125752	0.355797	-0.255837	0.28606	0.524448	1.16855	0.226335	-0.209354	0.215511	0.446698	1.14295
0.6	0.214416	0.00709412	-0.0424307	0.58979	0.892849	-0.234583	-0.459826	-0.120175	-0.28797	0.408646	0.312365	0.379212	-0.0319659	0.178184	-0.0437121	-0.07139	0.0206141	0.130844	0.0200961	-0.0317908	-0.571282	-0.242089	0.113573	0.347858	-0.248421	0.290669	0.531464	1.17396	0.223035	-0.215709	0.210327	0.444635	1.13822
0.61	0.217494	0.0190983	-0.0444426	0.603957	0.892133	-0.23635	-0.465169	-0.138447	-0.282263	0.431602	0.286748	0.357574	-0.0319649	0.174556	-0.0310061	-0.0757044	0.0428407	0.104559	0.0118179	-0.0317903	-0.574242	-0.262865	0.0997136	0.33938	-0.24096	0.29491	0.539066	1.17981	0.220827	-0.22246	0.206568	0.44175	1.13383
0.62	0.220916	0.0319665	-0.0457033	0.61799	0.891662	-0.238225	-0.466839	-0.157738	-0.276317	0.460581	0.255418	0.33059	-0.0319639	0.172187	-0.0172818	-0.0829004	0.0688639	0.0773717	0.00426423	-0.0317898	-0.578684	-0.284104	0.0843612	0.330597	-0.233483	0.298986	0.547004	1.18574	0.220009	-0.229555	0.20428	0.437974	1.12974
0.63	0.224441	0.0455707	-0.0464009	0.631829	0.891447	-0.240175	-0.464003	-0.177937	-0.269765	0.4961	0.218333	0.297911	-0.0319628	0.170855	-0.00282711	-0.0925001	0.097376	0.0516367	-0.00195373	-0.0317893	-0.584462	-0.30568	0.0677647	0.321747	-0.225991	0.303195	0.55497	1.19133	0.22079	-0.236936	0.203399	0.433268	1.12593
0.64	0.227779	0.0597349	-0.0467704	0.64543	0.891485	-0.242162	-0.455935	-0.198878	-0.262173	0.538352	0.175995	0.25949	-0.0319618	0.17032	0.0120134	-0.104152	0.127185	0.0296585	-0.00601939	-0.0317888	-0.591289	-0.327443	0.0502178	0.313057	-0.218471	0.30791	0.562626	1.19626	0.223274	-0.244543	0.203765	0.427629	1.12246
0.65	0.23064	0.0742708	-0.0470737	0.658764	0.89177	-0.244147	-0.442135	-0.220334	-0.253103	0.587126	0.129539	0.21568	-0.0319608	0.170265	0.0268981	-0.117581	0.157139	0.0133062	-0.00709551	-0.0317883	-0.598786	-0.349213	0.0320387	0.304725	-0.210915	0.313539	0.569642	1.20029	0.227451	-0.252315	0.205155	0.421094	1.11945
0.66	0.232799	0.0889806	-0.0475643	0.671817	0.892291	-0.246099	-0.422415	-0.242006	-0.242186	0.641771	0.0807258	0.167297	-0.0319597	0.170249	0.0415464	-0.132489	0.186053	0.00370255	-0.00456076	-0.0317878	-0.606541	-0.37077	0.0135442	0.296919	-0.203334	0.320479	0.575745	1.20331	0.233198	-0.260184	0.207325	0.413754	1.11707
0.67	0.234132	0.103643	-0.0484483	0.684589	0.893034	-0.247998	-0.396947	-0.263522	-0.229185	0.701224	0.0318408	0.115626	-0.0319587	0.169702	0.0557722	-0.148458	0.212702	0.00106747	0.00178696	-0.0317873	-0.614174	-0.391847	-0.00497397	0.289767	-0.195779	0.329062	0.580754	1.20544	0.240306	-0.268081	0.21006	0.405749	1.11555
